# xmcd CD database file
#
# Track frame offsets:
#	150
#	30552
#	70655
#	115543
#	146443
#	166283
#	189729
#	235064
#
# Disc length: 3393 seconds
#
# Revision: 1
# Processed by: cddbd v1.5.2PL0 Copyright (c) Steve Scherf et al.
# Submitted via: CDex 1.70beta2
#
DISCID=600d3f08
DTITLE=Philip Glass - Liquid Times [CD 3]
DYEAR=2011
DGENRE=Jazz
TTITLE0=Lightning
TTITLE1=Glasspiece #3 ("Funeral" from "Akhnaten")
TTITLE2=Changing opinion
TTITLE3=Knee play 2
TTITLE4=Window of appearance (from "Akhnaten")
TTITLE5=Knee 5 (from "Einstein on the Beach")
TTITLE6=The lake
TTITLE7=Epilogue (from "Akhnaten")
EXTD=YEAR: 2011
EXTT0=
EXTT1=
EXTT2=
EXTT3=
EXTT4=
EXTT5=
EXTT6=
EXTT7=
PLAYORDER=
